<?xml version="1.0" encoding="utf-8"?>
<!-- Generator: Adobe Illustrator 16.0.0, SVG Export Plug-In . SVG Version: 6.00 Build 0)  -->
<!DOCTYPE svg PUBLIC "-//W3C//DTD SVG 1.1//EN" "http://www.w3.org/Graphics/SVG/1.1/DTD/svg11.dtd">
<svg version="1.1" id="Layer_1" xmlns="http://www.w3.org/2000/svg" xmlns:xlink="http://www.w3.org/1999/xlink" x="0px" y="0px"
	 width="1280px" height="800px" viewBox="0 0 1280 800" enable-background="new 0 0 1280 800" xml:space="preserve">
<g>
	<rect x="56" y="37" fill="none" stroke="#FFFFFF" stroke-width="4" stroke-miterlimit="10" width="521" height="713"/>
	<line fill="none" stroke="#FFFFFF" stroke-width="4" stroke-miterlimit="10" x1="219" y1="171" x2="406" y2="171"/>
	<line fill="none" stroke="#FFFFFF" stroke-width="4" stroke-miterlimit="10" x1="114" y1="278" x2="511" y2="278"/>
	<line fill="none" stroke="#FFFFFF" stroke-width="4" stroke-miterlimit="10" x1="114" y1="356" x2="511" y2="356"/>
	<line fill="none" stroke="#FFFFFF" stroke-width="4" stroke-miterlimit="10" x1="114" y1="436" x2="511" y2="436"/>
	<line fill="none" stroke="#FFFFFF" stroke-width="4" stroke-miterlimit="10" x1="114" y1="514" x2="511" y2="514"/>
	<line fill="none" stroke="#FFFFFF" stroke-width="4" stroke-miterlimit="10" x1="114" y1="592" x2="511" y2="592"/>
	<line fill="none" stroke="#FFFFFF" stroke-width="4" stroke-miterlimit="10" x1="114" y1="671" x2="511" y2="671"/>
</g>
<g>
	<polygon fill="none" stroke="#FFFFFF" stroke-width="4" stroke-miterlimit="10" points="676.45,740.481 1140.349,757.039 
		1200.012,677.991 1222.55,46.519 701.882,27.935 	"/>
	
		<line fill="none" stroke="#FFFFFF" stroke-width="4" stroke-miterlimit="10" x1="755.813" y1="114.914" x2="1154.56" y2="129.146"/>
	
		<line fill="none" stroke="#FFFFFF" stroke-width="4" stroke-miterlimit="10" x1="752.996" y1="193.864" x2="1151.742" y2="208.096"/>
	
		<line fill="none" stroke="#FFFFFF" stroke-width="4" stroke-miterlimit="10" x1="750.249" y1="270.815" x2="1148.995" y2="285.047"/>
	
		<line fill="none" stroke="#FFFFFF" stroke-width="4" stroke-miterlimit="10" x1="747.467" y1="348.766" x2="1146.213" y2="362.997"/>
	
		<line fill="none" stroke="#FFFFFF" stroke-width="4" stroke-miterlimit="10" x1="744.613" y1="428.715" x2="1143.359" y2="442.946"/>
	
		<line fill="none" stroke="#FFFFFF" stroke-width="4" stroke-miterlimit="10" x1="741.831" y1="506.665" x2="1140.577" y2="520.896"/>
	
		<line fill="none" stroke="#FFFFFF" stroke-width="4" stroke-miterlimit="10" x1="739.049" y1="584.615" x2="1137.795" y2="598.847"/>
	
		<line fill="none" stroke="#FFFFFF" stroke-width="4" stroke-miterlimit="10" x1="1140.262" y1="754.033" x2="1143.115" y2="674.084"/>
	
		<line fill="none" stroke="#FFFFFF" stroke-width="4" stroke-miterlimit="10" x1="1199.937" y1="680.115" x2="1143.972" y2="678.117"/>
	
		<line fill="none" stroke="#FFFFFF" stroke-width="4" stroke-miterlimit="10" x1="736.231" y1="663.564" x2="1134.978" y2="677.797"/>
</g>
</svg>
