<?xml version="1.0" encoding="utf-8"?>
<!-- Generator: Adobe Illustrator 16.0.0, SVG Export Plug-In . SVG Version: 6.00 Build 0)  -->
<!DOCTYPE svg PUBLIC "-//W3C//DTD SVG 1.1//EN" "http://www.w3.org/Graphics/SVG/1.1/DTD/svg11.dtd">
<svg version="1.1" id="Layer_1" xmlns:sketch="http://www.bohemiancoding.com/sketch/ns"
	 xmlns="http://www.w3.org/2000/svg" xmlns:xlink="http://www.w3.org/1999/xlink" x="0px" y="0px" width="400px" height="186px"
	 viewBox="0 0 400 186" enable-background="new 0 0 400 186" xml:space="preserve">
<title>seo</title>
<desc>Created with Sketch.</desc>
<g id="Page-1" sketch:type="MSPage">
	<g id="seo" sketch:type="MSLayerGroup">
		<g id="Group" sketch:type="MSShapeGroup">
			<path id="Shape" fill="#FFFFFF" d="M114.417,141.227c2.404,0,4.351,1.947,4.351,4.354c0,2.401-1.947,4.353-4.351,4.353
				c-2.397,0-4.345-1.95-4.345-4.353C110.072,143.174,112.02,141.227,114.417,141.227L114.417,141.227z"/>
			<path id="Shape_1_" fill="#FFFFFF" d="M142.668,183.591H88.215c-5.236,0-7.735-0.639-8.67-2.258
				c-0.454-0.509-0.693-1.124-0.697-1.799c-0.008-1.97,2.025-3.834,4.595-6.192c0.853-0.782,1.741-1.597,2.55-2.423
				c3.226-3.288,4.218-9.748,4.517-12.971H9.407c-4.559,0-8.407-3.82-8.407-8.341V9.045C1,4.609,4.77,1,9.407,1h210.21
				c4.615,0,8.228,3.536,8.228,8.05v140.567c0,4.599-3.687,8.339-8.221,8.339h-79.99c0.292,3.215,1.273,9.665,4.51,12.972
				c0.804,0.814,1.684,1.621,2.533,2.398c1.829,1.672,3.367,3.081,4.12,4.458h0.675v0.445h0.212l-0.023,1.58
				C151.604,183.591,145.343,183.591,142.668,183.591L142.668,183.591z M82.249,179.791c0.039,0,0.928,0.684,5.967,0.684h54.454
				c3.48,0,4.956-0.382,5.553-0.637l-0.039-0.286c-0.103-0.724-2.211-2.65-3.604-3.927c-0.886-0.811-1.81-1.656-2.653-2.513
				c-4.653-4.757-5.395-13.942-5.511-16.644l-0.07-1.624h83.282c2.817,0,5.109-2.345,5.109-5.226V9.05
				c0-2.768-2.247-4.936-5.116-4.936H9.407c-2.92,0-5.297,2.212-5.297,4.931v140.561c0,2.784,2.476,5.226,5.297,5.226h84.397
				l-0.072,1.628c-0.124,2.708-0.882,11.91-5.52,16.639c-0.849,0.865-1.777,1.718-2.668,2.535c-1.295,1.189-3.209,2.946-3.542,3.757
				l0.074,0.074L82.249,179.791C82.247,179.791,82.247,179.791,82.249,179.791L82.249,179.791z"/>
			<path id="Shape_2_" fill="#FFFFFF" d="M114.417,149.931c-2.401,0-4.345-1.947-4.345-4.353c0-2.41,1.947-4.359,4.345-4.359
				c2.404,0,4.351,1.949,4.351,4.359C118.768,147.983,116.821,149.931,114.417,149.931L114.417,149.931z"/>
			<path id="Shape_3_" fill="#FFFFFF" d="M218.406,128.722H10.434V10.001h207.972V128.722L218.406,128.722z M13.544,125.608h201.75
				V13.116H13.544V125.608L13.544,125.608z"/>
			<rect id="Rectangle-path" x="22.18" y="92.297" fill="#FFFFFF" width="92.237" height="5.64"/>
			<rect id="Rectangle-path_1_" x="22.18" y="102.655" fill="#FFFFFF" width="184.479" height="5.64"/>
			<rect id="Rectangle-path_2_" x="22.18" y="113.01" fill="#FFFFFF" width="184.479" height="5.644"/>
			<path id="Shape_4_" fill="#FFFFFF" d="M39.462,74.667h10.067c1.194,0,2.16-0.967,2.16-2.158v-19.26
				c0-1.195-0.966-2.162-2.16-2.162H39.462c-1.193,0-2.156,0.967-2.156,2.162v19.26C37.306,73.7,38.269,74.667,39.462,74.667
				L39.462,74.667z"/>
			<path id="Shape_5_" fill="#FFFFFF" d="M63.262,74.667h10.074c1.193,0,2.154-0.967,2.154-2.158V41.456
				c0-1.193-0.961-2.16-2.154-2.16H63.262c-1.193,0-2.155,0.967-2.155,2.16v31.051C61.107,73.7,62.069,74.667,63.262,74.667
				L63.262,74.667z"/>
			<path id="Shape_6_" fill="#FFFFFF" d="M87.072,74.667h10.064c1.192,0,2.163-0.967,2.163-2.158V29.666
				c0-1.192-0.971-2.158-2.163-2.158H87.072c-1.194,0-2.16,0.966-2.16,2.158v42.843C84.914,73.7,85.879,74.667,87.072,74.667
				L87.072,74.667z"/>
			<path id="Shape_7_" fill="#FFFFFF" d="M131.484,71.792c1.948,0,3.527-1.574,3.527-3.521c0-0.68-0.199-1.318-0.535-1.848
				l14.572-14.608c0.544,0.334,1.179,0.534,1.863,0.534c0.962,0,1.841-0.393,2.476-1.024l15.739,9.858
				c-0.125,0.356-0.195,0.741-0.195,1.137c0,1.957,1.574,3.529,3.516,3.529c1.946,0,3.522-1.576,3.522-3.529
				c0-0.491-0.101-0.952-0.274-1.375l17.12-12.57c0.609,0.525,1.409,0.844,2.292,0.844c1.944,0,3.509-1.578,3.509-3.525
				c0-1.951-1.572-3.527-3.509-3.527c-1.957,0-3.524,1.582-3.524,3.527c0,0.492,0.096,0.958,0.271,1.384l-17.109,12.567
				c-0.619-0.534-1.415-0.849-2.298-0.849c-0.955,0-1.838,0.393-2.471,1.027l-15.73-9.866c0.115-0.355,0.187-0.738,0.187-1.135
				c0-1.945-1.58-3.525-3.526-3.525c-1.944,0-3.522,1.582-3.522,3.525c0,0.681,0.199,1.318,0.533,1.854l-14.582,14.601
				c-0.537-0.337-1.171-0.534-1.851-0.534c-1.939,0-3.518,1.586-3.518,3.525C127.963,70.22,129.542,71.792,131.484,71.792
				L131.484,71.792z"/>
			<g transform="translate(283.389831, 67.883212)">
				<path id="Shape_10_" fill="#FFFFFF" d="M12.088-20.104c12.056,0,21.865,9.822,21.865,21.895c0,12.071-9.81,21.894-21.865,21.894
					S-9.778,13.862-9.778,1.791C-9.778-10.282,0.032-20.104,12.088-20.104L12.088-20.104z M12.088-23.218
					c-13.794,0-24.976,11.197-24.976,25.009s11.179,25.007,24.976,25.007c13.795,0,24.976-11.195,24.976-25.007
					C37.062-12.021,25.883-23.218,12.088-23.218L12.088-23.218L12.088-23.218z"/>
				<path id="Shape_11_" fill="#FFFFFF" d="M12.092-20.297c12.193,0,22.115,9.922,22.115,22.116
					c0,12.195-9.922,22.118-22.115,22.118c-3.835,0-7.636-1.023-10.994-2.958l-2.063-1.188l-1.685,1.685l-21.191,21.195
					c-0.651,0.652-1.521,1.013-2.447,1.013c-0.927,0-1.8-0.361-2.456-1.019c-0.654-0.653-1.013-1.522-1.013-2.449
					s0.358-1.794,1.013-2.451L-7.56,16.577l1.689-1.69l-1.193-2.071c-1.933-3.355-2.955-7.158-2.955-10.997
					C-10.019-10.375-0.101-20.297,12.092-20.297L12.092-20.297z M12.092-23.411c-13.907,0-25.222,11.318-25.222,25.23
					c0,4.572,1.238,8.85,3.371,12.553l-21.184,21.189c-2.569,2.568-2.569,6.738,0,9.306c1.283,1.287,2.965,1.93,4.652,1.93
					c1.682,0,3.367-0.643,4.648-1.93L-0.454,23.68c3.7,2.131,7.976,3.371,12.544,3.371c13.909,0,25.226-11.316,25.226-25.231
					C37.316-12.093,26-23.411,12.092-23.411L12.092-23.411L12.092-23.411z"/>
			</g>
			<rect id="Rectangle-path_4_" x="358.438" y="24.406" fill="#FFFFFF" width="12.169" height="117.926"/>
			<path id="Shape_15_" fill="#FFFFFF" d="M345.285,43.668h-12.17V57.82c0.784,3.146,1.179,6.29,1.179,9.632
				c0,3.341-0.395,6.487-1.179,9.629v65.255h12.17V43.668L345.285,43.668z"/>
			<path id="Shape_16_" fill="#FFFFFF" d="M306.813,142.332h12.17V98.307c-3.73,2.752-7.851,4.914-12.17,6.093V142.332
				L306.813,142.332z"/>
			<path id="Shape_17_" fill="#FFFFFF" d="M279.528,142.332h12.17v-36.557c-2.16-0.195-4.318-0.59-6.478-1.376h-5.692V142.332
				L279.528,142.332z"/>
			<path id="Shape_18_" fill="#FFFFFF" d="M251.652,142.332h12.173v-18.867h-2.747l-9.426,9.237V142.332z"/>
		</g>
	</g>
</g>
</svg>
